<svg width="200" height="200" viewBox="0 0 200 200" xmlns="http://www.w3.org/2000/svg">
  <rect width="100%" height="100%" fill="black"/>
  <path fill="white" d="M136.3,102.7c-0.2-20.7,17.1-30.5,17.9-31c-9.8-14.3-25-16.3-30.4-16.5c-12.9-1.3-25.1,7.6-31.6,7.6
    c-6.5,0-16.7-7.4-27.5-7.2c-14.1,0.2-27.1,8.2-34.4,20.8c-14.8,25.7-3.8,63.8,10.6,84.7c7.1,10.2,15.6,21.6,26.8,21.2
    c10.7-0.4,14.7-6.9,27.6-6.9c12.9,0,16.4,6.9,27.6,6.7c11.5-0.2,18.8-10.3,25.9-20.5c8.2-12,11.5-23.6,11.7-24.2
    C157.7,134.7,136.5,126.6,136.3,102.7z M119.2,41.4c5.6-6.8,9.3-16.1,8.3-25.4c-8,0.3-17.8,5.3-23.5,12.1
    c-5.1,5.9-9.6,15.4-8.4,24.5C105.3,53.3,113.5,48.3,119.2,41.4z"/>
</svg>
